<?xml version="1.0" encoding="UTF-8"?>
<svg fill="none" viewBox="0 0 120 20" xmlns="http://www.w3.org/2000/svg">
<mask id="l" x="0" y="0" width="20" height="20" style="mask-type:luminance" maskUnits="userSpaceOnUse">
<path d="m17.741 4.5426c-1.6902-2.7106-4.6977-4.5148-8.1273-4.5148-5.2866 0-9.5723 4.2857-9.5723 9.5723 0 5.2866 4.2857 9.5723 9.5723 9.5723 5.2866 0 9.5722-4.2857 9.5722-9.5723 0-1.088-0.1903-2.1296-0.5247-3.1043 0.5108 2.6256-1.7429 5.7122-5.7051 6.6468-4.1871 0.9878-8.589-0.5586-9.1869-3.2076-0.59796-2.649 3.4996-5.715 6.8583-6.4981 3.0779-0.7176 5.6355-0.21912 7.0138 1.1459" clip-rule="evenodd" fill="#fff" fill-rule="evenodd"/>
</mask>
<g mask="url(#l)">
<path d="m11.014 9.0783-4.1193-2.1131c-0.18312-0.18024 1.3128 1.5617 4.1679 5.2257 0.1687 0.2129 0.4662 0.178 0.606-0.0198 5.6041-7.0336 8.4206-10.121 7.2501-9.2624l-7.9047 6.1696z" clip-rule="evenodd" fill="#108EE9" fill-rule="evenodd"/>
</g>
<mask id="k" x="0" y="0" width="20" height="20" style="mask-type:luminance" maskUnits="userSpaceOnUse">
<path d="m17.741 4.5426c-1.6902-2.7106-4.6977-4.5148-8.1273-4.5148-5.2866 0-9.5723 4.2857-9.5723 9.5723 0 5.2866 4.2857 9.5723 9.5723 9.5723 5.2866 0 9.5722-4.2857 9.5722-9.5723 0-1.088-0.1903-2.1296-0.5247-3.1043 0.5108 2.6256-1.7429 5.7122-5.7051 6.6468-4.1871 0.9878-8.589-0.5586-9.1869-3.2076-0.59796-2.649 3.4996-5.715 6.8583-6.4981 3.0779-0.7176 5.6355-0.21912 7.0138 1.1459" clip-rule="evenodd" fill="#fff" fill-rule="evenodd"/>
</mask>
<g mask="url(#k)">
<rect x="-2.2548" y="-1.8613" width="24.616" height="23.688" fill="#108EE9" stroke="#108EE9" stroke-width=".5"/>
</g>
<mask id="j" x="0" y="0" width="20" height="20" style="mask-type:luminance" maskUnits="userSpaceOnUse">
<path d="m17.741 4.5426c-1.6902-2.7106-4.6977-4.5148-8.1273-4.5148-5.2866 0-9.5723 4.2857-9.5723 9.5723 0 5.2866 4.2857 9.5723 9.5723 9.5723 5.2866 0 9.5722-4.2857 9.5722-9.5723 0-1.088-0.1903-2.1296-0.5247-3.1043 0.5108 2.6256-1.7429 5.7122-5.7051 6.6468-4.1871 0.9878-8.589-0.5586-9.1869-3.2076-0.59796-2.649 3.4996-5.715 6.8583-6.4981 3.0779-0.7176 5.6355-0.21912 7.0138 1.1459" clip-rule="evenodd" fill="#fff" fill-rule="evenodd"/>
</mask>
<g mask="url(#j)">
<path d="m18.885 8.0818c0 4.5258-3.9286 8.9833-8.7751 8.9833-4.8464 0-8.7751-3.9909-8.7751-8.5167 0-4.5258 3.9287-7.8726 8.7751-7.8726 4.8465 0 8.7751 2.8802 8.7751 7.406z" clip-rule="evenodd" fill="url(#e)" fill-rule="evenodd"/>
</g>
<mask id="i" x="0" y="0" width="20" height="20" style="mask-type:luminance" maskUnits="userSpaceOnUse">
<path d="m17.741 4.5426c-1.6902-2.7106-4.6977-4.5148-8.1273-4.5148-5.2866 0-9.5723 4.2857-9.5723 9.5723 0 5.2866 4.2857 9.5723 9.5723 9.5723 5.2866 0 9.5722-4.2857 9.5722-9.5723 0-1.088-0.1903-2.1296-0.5247-3.1043 0.5108 2.6256-1.7429 5.7122-5.7051 6.6468-4.1871 0.9878-8.589-0.5586-9.1869-3.2076-0.59796-2.649 3.4996-5.715 6.8583-6.4981 3.0779-0.7176 5.6355-0.21912 7.0138 1.1459" clip-rule="evenodd" fill="#fff" fill-rule="evenodd"/>
</mask>
<g mask="url(#i)">
<path d="m10.244 16.759c4.7727 0 8.6418-4.2777 8.6418-9.5545 0-5.2768-3.8691-9.5545-8.6418-9.5545-4.7727 0-8.6418 4.2777-8.6418 9.5545 0 5.2768 3.8691 9.5545 8.6418 9.5545z" clip-rule="evenodd" fill="url(#d)" fill-rule="evenodd"/>
</g>
<mask id="h" x="0" y="0" width="20" height="20" style="mask-type:luminance" maskUnits="userSpaceOnUse">
<path d="m17.741 4.5426c-1.6902-2.7106-4.6977-4.5148-8.1273-4.5148-5.2866 0-9.5723 4.2857-9.5723 9.5723 0 5.2866 4.2857 9.5723 9.5723 9.5723 5.2866 0 9.5722-4.2857 9.5722-9.5723 0-1.088-0.1903-2.1296-0.5247-3.1043 0.5108 2.6256-1.7429 5.7122-5.7051 6.6468-4.1871 0.9878-8.589-0.5586-9.1869-3.2076-0.59796-2.649 3.4996-5.715 6.8583-6.4981 3.0779-0.7176 5.6355-0.21912 7.0138 1.1459" clip-rule="evenodd" fill="#fff" fill-rule="evenodd"/>
</mask>
<g mask="url(#h)">
<path d="m9.7916 13.348c4.2928 0 7.7728-3.4486 7.7728-7.7026 0-4.2541-3.48-7.7027-7.7728-7.7027-4.2928 0-7.7729 3.4486-7.7729 7.7027 0 4.2541 3.48 7.7026 7.7729 7.7026z" clip-rule="evenodd" fill="url(#c)" fill-rule="evenodd"/>
</g>
<mask id="g" x="0" y="0" width="20" height="20" style="mask-type:luminance" maskUnits="userSpaceOnUse">
<path d="m17.741 4.5426c-1.6902-2.7106-4.6977-4.5148-8.1273-4.5148-5.2866 0-9.5723 4.2857-9.5723 9.5723 0 5.2866 4.2857 9.5723 9.5723 9.5723 5.2866 0 9.5722-4.2857 9.5722-9.5723 0-1.088-0.1903-2.1296-0.5247-3.1043 0.5108 2.6256-1.7429 5.7122-5.7051 6.6468-4.1871 0.9878-8.589-0.5586-9.1869-3.2076-0.59796-2.649 3.4996-5.715 6.8583-6.4981 3.0779-0.7176 5.6355-0.21912 7.0138 1.1459" clip-rule="evenodd" fill="#fff" fill-rule="evenodd"/>
</mask>
<g mask="url(#g)">
<path d="m17.764 3.7616c1.3026 3.2417-0.8705 7.1672-4.8538 8.7678-3.9833 1.6006-8.2684 0.2704-9.5711-2.9713-1.3027-3.2417 0.87048-7.1672 4.8538-8.7678 3.9833-1.6006 8.2685-0.27036 9.5711 2.9713z" clip-rule="evenodd" fill="url(#b)" fill-rule="evenodd"/>
</g>
<mask id="f" x="0" y="0" width="20" height="20" style="mask-type:luminance" maskUnits="userSpaceOnUse">
<path d="m17.741 4.5426c-1.6902-2.7106-4.6977-4.5148-8.1273-4.5148-5.2866 0-9.5723 4.2857-9.5723 9.5723 0 5.2866 4.2857 9.5723 9.5723 9.5723 5.2866 0 9.5722-4.2857 9.5722-9.5723 0-1.088-0.1903-2.1296-0.5247-3.1043 0.5108 2.6256-1.7429 5.7122-5.7051 6.6468-4.1871 0.9878-8.589-0.5586-9.1869-3.2076-0.59796-2.649 3.4996-5.715 6.8583-6.4981 3.0779-0.7176 5.6355-0.21912 7.0138 1.1459" clip-rule="evenodd" fill="#fff" fill-rule="evenodd"/>
</mask>
<g mask="url(#f)">
<path d="m17.814 3.8855c1.2464 3.1018-0.9722 6.9139-4.9555 8.5144-3.9833 1.6007-8.2228 0.3838-9.4692-2.718s0.97224-6.9139 4.9555-8.5145c3.9833-1.6007 8.2228-0.38376 9.4692 2.718z" clip-rule="evenodd" fill="url(#a)" fill-rule="evenodd"/>
</g>
<path d="m11.034 8.9523-4.1269-2.1131c-0.18346-0.18024 1.3152 1.5617 4.1755 5.2258 0.1691 0.2128 0.4671 0.1779 0.6072-0.0198 5.6145-7.0337 8.4362-10.121 7.2636-9.2625l-7.9194 6.1696z" clip-rule="evenodd" fill="#108EE9" fill-rule="evenodd"/>
<path d="m22.628 6.22v6.8085h2.768c2.2306 0 3.7717-1.4881 3.7717-3.4042v-0.01945c0-1.9161-1.5411-3.3848-3.7717-3.3848h-2.768zm2.768 5.4566h-1.2065v-4.1046h1.2065c1.2775 0 2.1394 0.84621 2.1394 2.0523v0.01946c0 1.2061-0.8619 2.0329-2.1394 2.0329zm6.9083-5.5052-3.0417 6.8571h1.5918l0.6489-1.527h3.0012l0.6489 1.527h1.6324l-3.0418-6.8571h-1.4397zm0.6996 1.7994 0.9429 2.2079h-1.8858l0.9429-2.2079zm6.1377-1.7508h-1.4397v6.8085h1.5411v-4.3282l3.4372 4.3282h1.3282v-6.8085h-1.5412v4.1921l-3.3256-4.1921zm8.8246-0.04863-3.0417 6.8571h1.5918l0.6489-1.527h3.0012l0.6489 1.527h1.6324l-3.0418-6.8571h-1.4397zm0.6996 1.7994 0.9429 2.2079h-1.8858l0.9429-2.2079zm6.5256-1.6857v6.6299h1.5204v-1.989h1.1552c1.55 0 2.794-0.7956 2.794-2.3299v-0.01894c0-1.3544-0.9972-2.292-2.6459-2.292h-2.8237zm2.7249 3.3433h-1.2045v-2.0268h1.1749c0.7602 0 1.2341 0.35043 1.2341 1.0039v0.01895c0 0.56827-0.4443 1.0039-1.2045 1.0039zm3.696-3.3433v6.6299h1.5205v-2.1216h1.1946l1.4809 2.1216h1.7772l-1.6883-2.3678c0.8787-0.3126 1.4809-0.98503 1.4809-2.0553v-0.01894c0-0.6251-0.2073-1.146-0.5923-1.5154-0.4542-0.43568-1.1354-0.67246-2.0141-0.67246h-3.1594zm3.0606 3.2202h-1.5401v-1.9037h1.5105c0.7405 0 1.1947 0.32202 1.1947 0.94712v0.01894c0 0.5588-0.4246 0.93765-1.1651 0.93765zm3.5973 0.11365c0 1.8848 1.5303 3.4096 3.6629 3.4096 2.1325 0 3.6826-1.5438 3.6826-3.4285v-0.01894c0-1.8848-1.5303-3.4096-3.6629-3.4096-2.1325 0-3.6826 1.5438-3.6826 3.4286v0.01894zm5.7559 0c0 1.1365-0.849 2.0647-2.0733 2.0647-1.2242 0-2.0931-0.9471-2.0931-2.0836v-0.01894c0-1.1366 0.8491-2.0647 2.0734-2.0647 1.2242 0 2.093 0.94712 2.093 2.0837v0.01894zm4.0811-1.989v5.285h1.5204v-5.285h2.103v-1.3449h-5.7264v1.3449h2.103zm9.8271-1.3449h-5.2129v6.6299h5.2623v-1.2976h-3.7518v-1.3922h3.2581v-1.2976h-3.2581v-1.3449h3.7024v-1.2976zm0.9217 3.3339c0 1.9037 1.5105 3.4096 3.5444 3.4096 1.3328 0 2.1227-0.4546 2.8335-1.1839l-0.9675-0.9376c-0.543 0.4735-1.0268 0.7766-1.8167 0.7766-1.1847 0-2.0042-0.9471-2.0042-2.0836v-0.01894c0-1.1366 0.8392-2.0647 2.0042-2.0647 0.6912 0 1.2342 0.28413 1.7673 0.74822l0.9676-1.0702c-0.6418-0.60616-1.4217-1.0229-2.725-1.0229-2.1227 0-3.6036 1.5438-3.6036 3.4286v0.01894zm9.0274-1.989v5.285h1.5204v-5.285h2.1027v-1.3449h-5.7261v1.3449h2.103zm6.2041-1.3449h-1.521v6.6299h1.521v-6.6299zm1.247 3.3339c0 1.8848 1.53 3.4096 3.663 3.4096s3.683-1.5438 3.683-3.4285v-0.01894c0-1.8848-1.531-3.4096-3.663-3.4096-2.133 0-3.683 1.5438-3.683 3.4286v0.01894zm5.756 0c0 1.1365-0.849 2.0647-2.073 2.0647-1.225 0-2.093-0.9471-2.093-2.0836v-0.01894c0-1.1366 0.849-2.0647 2.073-2.0647s2.093 0.94712 2.093 2.0837v0.01894zm4.17-3.3339h-1.402v6.6299h1.501v-4.2147l3.347 4.2147h1.293v-6.6299h-1.501v4.0821l-3.238-4.0821z" clip-rule="evenodd" fill="#727272" fill-rule="evenodd"/>
<defs>
<linearGradient id="e" x1="1.5791" x2="-1.6173" y1="9.3674" y2="24.136" gradientUnits="userSpaceOnUse">
<stop stop-color="#108EE9" offset="0"/>
<stop stop-color="#7FEBFF" offset="1"/>
</linearGradient>
<linearGradient id="d" x1="7.9028" x2="9.293" y1="10.397" y2="16.562" gradientUnits="userSpaceOnUse">
<stop stop-color="#69D0FF" offset="0"/>
<stop stop-color="#108EE9" offset="1"/>
</linearGradient>
<linearGradient id="c" x1="8.9226" x2="20.582" y1="15.142" y2="6.6075" gradientUnits="userSpaceOnUse">
<stop stop-color="#7FEBFF" offset="0"/>
<stop stop-color="#108EE9" offset="1"/>
</linearGradient>
<linearGradient id="b" x1="12.658" x2="21.154" y1="16.316" y2="3.4849" gradientUnits="userSpaceOnUse">
<stop stop-color="#108EE9" offset="0"/>
<stop stop-color="#7FEBFF" offset="1"/>
</linearGradient>
<linearGradient id="a" x1="9.6775" x2="23.026" y1="14.578" y2="6.9069" gradientUnits="userSpaceOnUse">
<stop stop-color="#108EE9" offset="0"/>
<stop stop-color="#7FEBFF" offset="1"/>
</linearGradient>
</defs>
</svg>
