<svg xmlns="http://www.w3.org/2000/svg" viewBox="0 0 63.6 17.4"><path d="M25.9 3.9h.2a4.45 4.45 0 0 1 4.1 4.7 4.33 4.33 0 0 1-4.1 4.1h-3.3V3.9h3.1zm-1.2 1.9v5.1h1.4a2.48 2.48 0 0 0 2.3-2.7 2.56 2.56 0 0 0-2.3-2.3l-1.4-.1zm20.5 1.8v5.2h1.9v-5A1.9 1.9 0 0 1 49 5.9a1.81 1.81 0 0 1 1.8 1.9v5h1.8V7.6a3.61 3.61 0 0 0-3.8-3.5 3.78 3.78 0 0 0-3.6 3.5zm11 0a3.71 3.71 0 0 1 7.4 0v5.2h-1.8v-1.9h-3.7v1.9h-1.9V7.6zm1.8.1V9h3.8V7.7a1.9 1.9 0 1 0-3.8 0zm-24.5-.1a3.7 3.7 0 0 1 7.4 0v5.2H39v-1.9h-3.7v1.9h-1.9V7.6h.1zm1.9.1V9h3.7V7.7a1.9 1.9 0 0 0-1.9-1.9 1.81 1.81 0 0 0-1.8 1.9zM0 8.7A8.62 8.62 0 0 1 8.6 0a8.62 8.62 0 0 1 8.6 8.7 8.62 8.62 0 0 1-8.6 8.7A8.56 8.56 0 0 1 0 8.7zm6.2-1.9h-.5a2 2 0 0 1-.8-.1 6.12 6.12 0 0 1-1.2-.5h-.2a.35.35 0 0 0-.1.2v4.9a.52.52 0 0 0 .2.4 3.7 3.7 0 0 0 2.1.6 8.47 8.47 0 0 0 1.7-.4l1.8-.6a9.36 9.36 0 0 1 1.6-.4 3.72 3.72 0 0 1 2.3.5c.2.1.2.1.2-.1V6.4a.55.55 0 0 0-.3-.5 3.23 3.23 0 0 0-3-.4l-1.8.6a7.71 7.71 0 0 1-2 .7z" fill="#108EE9"/></svg>